<svg width="30" height="150" xmlns="http://www.w3.org/2000/svg" xmlns:xlink="http://www.w3.org/1999/xlink"><svg width="30" height="30" xmlns="http://www.w3.org/2000/svg"><defs><path id="a" d="M0 0h32v32H0z"/></defs><g transform="translate(-1 -1)" fill="none" fill-rule="evenodd"><mask id="b" fill="#fff"><use xlink:href="#a"/></mask><g mask="url(#b)" fill="#212121"><path d="M29.344 1H2.656C1.74 1 1 1.741 1 2.656v26.688C1 30.26 1.741 31 2.656 31h14.368V19.382h-3.91v-4.527h3.91v-3.34c0-3.874 2.367-5.984 5.823-5.984 1.656 0 3.08.123 3.494.178v4.05l-2.398.001c-1.88 0-2.244.893-2.244 2.204v2.89h4.484l-.584 4.528h-3.9V31h7.645C30.26 31 31 30.26 31 29.344V2.656C31 1.74 30.259 1 29.344 1"/></g></g></svg><svg width="30" height="30" y="30" xmlns="http://www.w3.org/2000/svg"><defs><rect id="e" x=".667" y=".667" width="30" height="30" rx="2"/><path id="c" d="M0 0h32v32H0z"/></defs><g transform="translate(-1 -1)" fill="none" fill-rule="evenodd"><mask id="d" fill="#fff"><use xlink:href="#c"/></mask><g mask="url(#d)"><g transform="translate(.333 .333)"><mask id="f" fill="#fff"><use xlink:href="#e"/></mask><use fill="#212121" xlink:href="#e"/><path fill="#FFF" mask="url(#f)" d="M6.638 25h3.838V12.666H6.638zm18.195 0h-3.832v-6c0-1.43-.026-3.269-1.993-3.269-1.993 0-2.3 1.56-2.3 3.168v6.1h-3.827V12.666h3.673v1.686h.053c.513-.969 1.762-1.991 3.627-1.991 3.883 0 4.6 2.554 4.6 5.875V25zM8.559 10.98a2.224 2.224 0 11-.003-4.447 2.224 2.224 0 01.003 4.448"/></g></g></g></svg><svg width="30" height="30" y="60" xmlns="http://www.w3.org/2000/svg"><defs><path id="g" d="M0 0h32v32H0z"/></defs><g transform="translate(-1 -1)" fill="none" fill-rule="evenodd"><mask id="h" fill="#fff"><use xlink:href="#g"/></mask><g mask="url(#h)"><g transform="translate(.333 .333)"><rect fill="#212121" x=".667" y=".667" width="30" height="30" rx="2"/><path d="M7.787 10.991a.787.787 0 00-.242-.65l-1.79-2.238V7.77h5.56l4.298 9.778 3.779-9.778h5.3v.334l-1.53 1.523a.473.473 0 00-.171.446v11.19a.472.472 0 00.17.445l1.496 1.523v.334h-7.522v-.334l1.55-1.56c.151-.158.151-.205.151-.446V12.18L14.53 23.527h-.582L8.933 12.18v7.605c-.042.32.06.641.278.873l2.014 2.535v.334H5.513v-.334l2.015-2.535c.215-.232.311-.556.26-.873V10.99z" fill="#FFF"/></g></g></g></svg><svg width="25" height="30" y="90" xmlns="http://www.w3.org/2000/svg"><defs><path id="i" d="M0 0h32v32H0z"/></defs><g transform="translate(-4 -1)" fill="none" fill-rule="evenodd"><mask id="j" fill="#fff"><use xlink:href="#i"/></mask><g mask="url(#j)" fill="#212121"><path d="M25.341 15.955c0-3.466-.003-6.932.004-10.398 0-.438-.048-.746-.575-.744-3.99.013-7.98.009-11.97.008-.281 0-.529.081-.722.307-1.342 1.56-2.682 3.124-4.026 4.682-.329.38-.468.815-.467 1.334.007 5.076.01 10.153-.005 15.23-.002.567.184.736.7.735 5.441-.015 10.882-.008 16.323-.01.7 0 .737-.043.737-.808.002-3.446.001-6.89.001-10.336zM29 28.508c0 1.812-.601 2.478-2.305 2.484-3.436.014-16.8.006-20.045.003a6.62 6.62 0 01-.857-.041c-1.239-.163-1.783-.81-1.784-2.143-.004-6.258.002-12.516-.009-18.775-.001-.823.24-1.527.746-2.12a1344.29 1344.29 0 015.264-6.122c.479-.554 1.07-.796 1.788-.794 5.078.014 10.156.005 15.234.008 1.302 0 1.959.7 1.964 2.12L29 28.508z"/><path d="M15.185 14.2c.983-.035 1.6-.538 1.682-1.497l-.005-4.032c-.09-.96-.787-1.53-1.625-1.466-.815.062-1.366.696-1.4 1.64a22.55 22.55 0 00-.001 1.662c.018.461-.173.635-.632.631 0 0-1.428-.057-2.138.084-.44.088-.763.313-.98.7-.582 1.03.045 2.163 1.288 2.264l3.81.014z"/></g></g></svg><svg width="30" height="30" y="120" xmlns="http://www.w3.org/2000/svg"><defs><path id="k" d="M0 0h32v32H0z"/></defs><g transform="translate(-1 -1)" fill="none" fill-rule="evenodd"><mask id="l" fill="#fff"><use xlink:href="#k"/></mask><g mask="url(#l)"><path d="M29.333 16c0 7.364-5.97 13.333-13.333 13.333S2.667 23.364 2.667 16 8.637 2.667 16 2.667 29.333 8.636 29.333 16z" stroke="#212121" stroke-width="3"/><path d="M17.268 2.727s4.9 1.546.37 6.075c-3.355 3.356-2.766 4.78.757 5.283 3.52.502 11.513 2.55 10.536 5.174-.977 2.624.396-3.645.396-3.645l-2.08-6.77-5.015-4.633-4.964-1.484z" fill="#212121"/><path d="M17.268 2.727s4.9 1.546.37 6.075c-3.355 3.356-2.766 4.78.757 5.283 3.52.502 11.513 2.55 10.536 5.174-.977 2.624.396-3.645.396-3.645l-2.08-6.77-5.015-4.633-4.964-1.484z" stroke="#212121" stroke-linejoin="round"/><path d="M3 13.027S2.293 16.6 6.067 16.6c3.773 0 9.81 0 9.81 3.27s-4.024 4.53-4.024 4.53-3.27 1.761 2.138 4.784L6.119 24.95 2.9 18.487l.1-5.46z" fill="#212121"/><path d="M3 13.027S2.293 16.6 6.067 16.6c3.773 0 9.81 0 9.81 3.27s-4.024 4.53-4.024 4.53-3.27 1.761 2.138 4.784L6.119 24.95 2.9 18.487l.1-5.46z" stroke="#212121" stroke-linejoin="round"/></g></g></svg></svg>