<svg width="30" height="30" xmlns="http://www.w3.org/2000/svg" xmlns:xlink="http://www.w3.org/1999/xlink"><defs><path id="a" d="M0 0h32v32H0z"/></defs><g transform="translate(-1 -1)" fill="none" fill-rule="evenodd"><mask id="b" fill="#fff"><use xlink:href="#a"/></mask><g mask="url(#b)"><g transform="translate(.333 .333)"><rect fill="#212121" x=".667" y=".667" width="30" height="30" rx="2"/><path d="M7.787 10.991a.787.787 0 00-.242-.65l-1.79-2.238V7.77h5.56l4.298 9.778 3.779-9.778h5.3v.334l-1.53 1.523a.473.473 0 00-.171.446v11.19a.472.472 0 00.17.445l1.496 1.523v.334h-7.522v-.334l1.55-1.56c.151-.158.151-.205.151-.446V12.18L14.53 23.527h-.582L8.933 12.18v7.605c-.042.32.06.641.278.873l2.014 2.535v.334H5.513v-.334l2.015-2.535c.215-.232.311-.556.26-.873V10.99z" fill="#FFF"/></g></g></g></svg>