<svg width="30" height="30" xmlns="http://www.w3.org/2000/svg" xmlns:xlink="http://www.w3.org/1999/xlink"><defs><path id="a" d="M0 0h32v32H0z"/></defs><g transform="translate(-1 -1)" fill="none" fill-rule="evenodd"><mask id="b" fill="#fff"><use xlink:href="#a"/></mask><g mask="url(#b)" fill="#212121"><path d="M29.344 1H2.656C1.74 1 1 1.741 1 2.656v26.688C1 30.26 1.741 31 2.656 31h14.368V19.382h-3.91v-4.527h3.91v-3.34c0-3.874 2.367-5.984 5.823-5.984 1.656 0 3.08.123 3.494.178v4.05l-2.398.001c-1.88 0-2.244.893-2.244 2.204v2.89h4.484l-.584 4.528h-3.9V31h7.645C30.26 31 31 30.26 31 29.344V2.656C31 1.74 30.259 1 29.344 1"/></g></g></svg>