<svg width="30" height="30" xmlns="http://www.w3.org/2000/svg" xmlns:xlink="http://www.w3.org/1999/xlink"><defs><rect id="c" x=".667" y=".667" width="30" height="30" rx="2"/><path id="a" d="M0 0h32v32H0z"/></defs><g transform="translate(-1 -1)" fill="none" fill-rule="evenodd"><mask id="b" fill="#fff"><use xlink:href="#a"/></mask><g mask="url(#b)"><g transform="translate(.333 .333)"><mask id="d" fill="#fff"><use xlink:href="#c"/></mask><use fill="#212121" xlink:href="#c"/><path fill="#FFF" mask="url(#d)" d="M6.638 25h3.838V12.666H6.638zm18.195 0h-3.832v-6c0-1.43-.026-3.269-1.993-3.269-1.993 0-2.3 1.56-2.3 3.168v6.1h-3.827V12.666h3.673v1.686h.053c.513-.969 1.762-1.991 3.627-1.991 3.883 0 4.6 2.554 4.6 5.875V25zM8.559 10.98a2.224 2.224 0 11-.003-4.447 2.224 2.224 0 01.003 4.448"/></g></g></g></svg>