<svg width="25" height="30" xmlns="http://www.w3.org/2000/svg" xmlns:xlink="http://www.w3.org/1999/xlink"><defs><path id="a" d="M0 0h32v32H0z"/></defs><g transform="translate(-4 -1)" fill="none" fill-rule="evenodd"><mask id="b" fill="#fff"><use xlink:href="#a"/></mask><g mask="url(#b)" fill="#212121"><path d="M25.341 15.955c0-3.466-.003-6.932.004-10.398 0-.438-.048-.746-.575-.744-3.99.013-7.98.009-11.97.008-.281 0-.529.081-.722.307-1.342 1.56-2.682 3.124-4.026 4.682-.329.38-.468.815-.467 1.334.007 5.076.01 10.153-.005 15.23-.002.567.184.736.7.735 5.441-.015 10.882-.008 16.323-.01.7 0 .737-.043.737-.808.002-3.446.001-6.89.001-10.336zM29 28.508c0 1.812-.601 2.478-2.305 2.484-3.436.014-16.8.006-20.045.003a6.62 6.62 0 01-.857-.041c-1.239-.163-1.783-.81-1.784-2.143-.004-6.258.002-12.516-.009-18.775-.001-.823.24-1.527.746-2.12a1344.29 1344.29 0 015.264-6.122c.479-.554 1.07-.796 1.788-.794 5.078.014 10.156.005 15.234.008 1.302 0 1.959.7 1.964 2.12L29 28.508z"/><path d="M15.185 14.2c.983-.035 1.6-.538 1.682-1.497l-.005-4.032c-.09-.96-.787-1.53-1.625-1.466-.815.062-1.366.696-1.4 1.64a22.55 22.55 0 00-.001 1.662c.018.461-.173.635-.632.631 0 0-1.428-.057-2.138.084-.44.088-.763.313-.98.7-.582 1.03.045 2.163 1.288 2.264l3.81.014z"/></g></g></svg>