<svg width="30" height="30" xmlns="http://www.w3.org/2000/svg" xmlns:xlink="http://www.w3.org/1999/xlink"><defs><path id="a" d="M0 0h32v32H0z"/></defs><g transform="translate(-1 -1)" fill="none" fill-rule="evenodd"><mask id="b" fill="#fff"><use xlink:href="#a"/></mask><g mask="url(#b)"><path d="M29.333 16c0 7.364-5.97 13.333-13.333 13.333S2.667 23.364 2.667 16 8.637 2.667 16 2.667 29.333 8.636 29.333 16z" stroke="#212121" stroke-width="3"/><path d="M17.268 2.727s4.9 1.546.37 6.075c-3.355 3.356-2.766 4.78.757 5.283 3.52.502 11.513 2.55 10.536 5.174-.977 2.624.396-3.645.396-3.645l-2.08-6.77-5.015-4.633-4.964-1.484z" fill="#212121"/><path d="M17.268 2.727s4.9 1.546.37 6.075c-3.355 3.356-2.766 4.78.757 5.283 3.52.502 11.513 2.55 10.536 5.174-.977 2.624.396-3.645.396-3.645l-2.08-6.77-5.015-4.633-4.964-1.484z" stroke="#212121" stroke-linejoin="round"/><path d="M3 13.027S2.293 16.6 6.067 16.6c3.773 0 9.81 0 9.81 3.27s-4.024 4.53-4.024 4.53-3.27 1.761 2.138 4.784L6.119 24.95 2.9 18.487l.1-5.46z" fill="#212121"/><path d="M3 13.027S2.293 16.6 6.067 16.6c3.773 0 9.81 0 9.81 3.27s-4.024 4.53-4.024 4.53-3.27 1.761 2.138 4.784L6.119 24.95 2.9 18.487l.1-5.46z" stroke="#212121" stroke-linejoin="round"/></g></g></svg>